<svg width="12" height="12" viewBox="0 0 12 12" fill="none" xmlns="http://www.w3.org/2000/svg">
<path fill-rule="evenodd" clip-rule="evenodd" d="M2 7.5V4.5H4L6.5 2V10L4 7.5H2ZM9.29638 6.25624C9.64638 6.61089 9.93576 6.91619 9.96553 6.97063C10.1009 7.21816 9.7383 7.48269 9.55319 7.49448C9.4966 7.49796 9.14207 7.18028 8.74339 6.79914C8.3777 7.15177 8.06028 7.44586 8.0044 7.47578C7.75429 7.60967 7.45362 7.15127 7.53323 7.01006C7.56084 6.96095 7.85704 6.64677 8.21488 6.2826C7.8354 5.90403 7.51993 5.57269 7.50569 5.5292C7.44637 5.34832 7.86813 4.94963 7.97686 5.00528C8.05525 5.04536 8.39274 5.36167 8.76833 5.72968C9.10711 5.39772 9.4118 5.11387 9.52204 5.0445C9.7431 4.90565 10.0495 5.40284 9.99322 5.51023C9.95402 5.5852 9.65321 5.89983 9.29638 6.25624Z" fill="black"/>
</svg>
