<svg width="18" height="16" viewBox="0 0 18 16" fill="none" xmlns="http://www.w3.org/2000/svg">
<path d="M10.5339 12.823C10.0691 13.0133 9.87425 13.5549 10.0841 13.994L10.8188 15.5017C11.0286 15.9261 11.5384 16.1165 11.9881 15.9261C13.2625 15.3991 14.3569 14.7111 15.2265 13.8768C16.2909 12.8962 17.0105 11.769 17.4003 10.5248C17.7901 9.26577 18 7.55326 18 5.37218L18 0.878286C18 0.395229 17.5952 9.18287e-07 17.1005 8.75035e-07L11.2086 3.59947e-07C10.7138 3.16696e-07 10.309 0.395229 10.309 0.878286L10.309 6.63106C10.309 7.11426 10.7138 7.50934 11.2086 7.50934L14.0271 7.50934C13.9971 8.98794 13.6373 10.1735 12.9776 11.0665C12.4379 11.7835 11.6283 12.369 10.5339 12.823Z" fill="#8C8E99"/>
<path d="M0.534848 12.8348C0.0692151 13.0253 -0.125901 13.5674 0.0842354 14.0069L0.820236 15.5012C1.03052 15.9261 1.54122 16.1166 1.99183 15.9261C3.25355 15.3987 4.33517 14.71 5.22122 13.8896C6.28782 12.8933 7.02367 11.7651 7.41435 10.5197C7.80488 9.28915 8 7.57479 8 5.37708L8 0.879086C8 0.39559 7.59445 9.1822e-07 7.09878 8.74887e-07L1.19575 3.58828e-07C0.700074 3.15494e-07 0.294523 0.395589 0.294523 0.879086L0.294522 6.6371C0.294522 7.12074 0.700074 7.51618 1.19575 7.51618L4.03461 7.51618C4.00457 8.99612 3.64393 10.1827 2.98318 11.0766C2.44244 11.7944 1.63134 12.3805 0.534848 12.8348Z" fill="#8C8E99"/>
</svg>
