<svg width="10" height="10" viewBox="0 0 10 10" fill="none" xmlns="http://www.w3.org/2000/svg">
<g clip-path="url(#clip0_279_710)">
<path fill-rule="evenodd" clip-rule="evenodd" d="M4.99996 1.25002C2.92889 1.25002 1.24996 2.92895 1.24996 5.00002C1.24996 7.07109 2.92889 8.75002 4.99996 8.75002C7.07103 8.75002 8.74996 7.07109 8.74996 5.00002C8.74996 2.92895 7.07103 1.25002 4.99996 1.25002ZM0.416626 5.00002C0.416626 2.46872 2.46865 0.416687 4.99996 0.416687C7.53126 0.416687 9.58329 2.46872 9.58329 5.00002C9.58329 7.53133 7.53126 9.58335 4.99996 9.58335C2.46865 9.58335 0.416626 7.53133 0.416626 5.00002Z" fill="white"/>
<path fill-rule="evenodd" clip-rule="evenodd" d="M5.00004 2.08331C5.23016 2.08331 5.41671 2.26986 5.41671 2.49998V4.74247L6.85305 5.46063C7.05887 5.56355 7.1423 5.81383 7.03939 6.01965C6.93647 6.22548 6.68619 6.3089 6.48037 6.20599L4.8137 5.37266C4.67254 5.30208 4.58337 5.1578 4.58337 4.99998V2.49998C4.58337 2.26986 4.76992 2.08331 5.00004 2.08331Z" fill="white"/>
</g>
<defs>
<clipPath id="clip0_279_710">
<rect width="10" height="10" fill="white"/>
</clipPath>
</defs>
</svg>
