<svg width="56" height="30" viewBox="0 0 56 30" fill="none" xmlns="http://www.w3.org/2000/svg">
<path opacity="0.2" fill-rule="evenodd" clip-rule="evenodd" d="M45.3247 19.7003C46.3217 18.7033 46.8728 17.377 46.8868 15.969L53.747 22.8269C53.1259 23.9197 52.4114 24.9611 51.4984 25.8741C48.8388 28.5336 45.3013 30 41.5373 30C37.7733 30 34.2358 28.5336 31.5762 25.8741L27.8124 22.1107L24.0481 25.8744C21.3021 28.618 17.6946 29.9933 14.087 29.9933C10.4795 29.9933 6.87189 28.618 4.12593 25.8721C1.46404 23.2125 0 19.675 0 15.9133H8.73054C8.73054 17.3423 9.2886 18.6896 10.2997 19.7007C12.3895 21.7858 15.7869 21.7858 17.8767 19.7007L21.6395 15.9385L21.6392 15.9382L21.6387 15.9387L18.1829 12.4829L18.1832 12.4826L11.8735 6.17372L18.0473 0L27.8132 9.76591L31.5761 6.00359C37.0657 0.514024 46.004 0.507019 51.4983 6.00359C54.1462 8.65148 55.6125 12.1703 55.6242 15.9133V15.9647H46.8937C46.8937 14.5357 46.3356 13.1884 45.3246 12.1773C43.3001 10.1529 39.7719 10.1529 37.7475 12.1773L33.9857 15.9385L33.9858 15.9385L33.9859 15.9385L37.4393 19.3919L37.4393 19.392L37.7476 19.7003C39.8374 21.7855 43.2348 21.7855 45.3247 19.7003Z" fill="#45464F"/>
</svg>
