<svg width="24" height="24" viewBox="0 0 24 24" fill="none" xmlns="http://www.w3.org/2000/svg">
<path fill-rule="evenodd" clip-rule="evenodd" d="M7.68499 15.9355C8.04297 15.5775 8.62337 15.5775 8.98135 15.9355L11.9998 18.954L15.0183 15.9355C15.3763 15.5775 15.9567 15.5775 16.3147 15.9355C16.6727 16.2935 16.6727 16.8739 16.3147 17.2318L12.648 20.8985C12.29 21.2565 11.7096 21.2565 11.3517 20.8985L7.68499 17.2318C7.32701 16.8739 7.32701 16.2935 7.68499 15.9355Z" fill="#8C8E99"/>
<path fill-rule="evenodd" clip-rule="evenodd" d="M12.0002 11.083C12.5064 11.083 12.9168 11.4934 12.9168 11.9997V20.2497C12.9168 20.7559 12.5064 21.1663 12.0002 21.1663C11.4939 21.1663 11.0835 20.7559 11.0835 20.2497V11.9997C11.0835 11.4934 11.4939 11.083 12.0002 11.083Z" fill="#8C8E99"/>
<path fill-rule="evenodd" clip-rule="evenodd" d="M8.94521 2.8276C10.1923 2.78275 11.4333 3.0214 12.5749 3.52558C13.7164 4.02977 14.7287 4.78635 15.5355 5.73836C16.1868 6.50686 16.6905 7.38654 17.0236 8.33295L17.4992 8.33295C18.6681 8.33218 19.8075 8.70382 20.7509 9.39396C21.6945 10.0842 22.3935 11.0572 22.7466 12.1718C23.0997 13.2863 23.0885 14.4843 22.7146 15.592C22.3407 16.6997 21.6235 17.6595 20.6672 18.3319C20.2531 18.6232 19.6813 18.5235 19.3901 18.1094C19.0989 17.6953 19.1985 17.1235 19.6126 16.8323C20.2502 16.384 20.7283 15.7441 20.9776 15.0057C21.2269 14.2672 21.2343 13.4685 20.9989 12.7255C20.7635 11.9825 20.2975 11.3338 19.6684 10.8736C19.0394 10.4134 18.28 10.1657 17.5006 10.1663H16.3449C15.9264 10.1663 15.561 9.88282 15.457 9.47745C15.2158 8.5373 14.7644 7.66413 14.1369 6.92368C13.5094 6.18322 12.722 5.59477 11.8342 5.20262C10.9463 4.81048 9.98107 4.62486 9.01109 4.65974C8.04112 4.69463 7.0917 4.9491 6.2343 5.40401C5.37691 5.85891 4.63388 6.5024 4.06117 7.28602C3.48845 8.06964 3.10096 8.97297 2.92788 9.92801C2.7548 10.8831 2.80063 11.8649 3.06192 12.7997C3.32322 13.7345 3.79317 14.5978 4.43639 15.3246C4.77189 15.7038 4.73653 16.2831 4.3574 16.6186C3.97827 16.9541 3.39895 16.9187 3.06345 16.5396C2.23644 15.6051 1.63222 14.4951 1.29627 13.2932C0.960325 12.0914 0.901399 10.829 1.12393 9.60109C1.34647 8.37317 1.84466 7.21174 2.58101 6.20423C3.31736 5.19672 4.27268 4.36938 5.37505 3.7845C6.47741 3.19962 7.6981 2.87244 8.94521 2.8276Z" fill="#8C8E99"/>
</svg>
