<svg width="21" height="21" viewBox="0 0 21 21" fill="none" xmlns="http://www.w3.org/2000/svg">
<path fill-rule="evenodd" clip-rule="evenodd" d="M10.4999 3.49999C8.64342 3.49999 6.86295 4.23749 5.55019 5.55024C4.23744 6.863 3.49994 8.64348 3.49994 10.5V15.75C3.49994 16.2332 3.10819 16.625 2.62494 16.625C2.14169 16.625 1.74994 16.2332 1.74994 15.75V10.5C1.74994 8.17935 2.67181 5.95375 4.31275 4.31281C5.9537 2.67186 8.17929 1.74999 10.4999 1.74999C12.8206 1.74999 15.0462 2.67186 16.6871 4.31281C18.3281 5.95375 19.2499 8.17935 19.2499 10.5V15.75C19.2499 16.2332 18.8582 16.625 18.3749 16.625C17.8917 16.625 17.4999 16.2332 17.4999 15.75V10.5C17.4999 8.64348 16.7624 6.863 15.4497 5.55024C14.1369 4.23749 12.3565 3.49999 10.4999 3.49999Z" fill="#8C8E99"/>
<path fill-rule="evenodd" clip-rule="evenodd" d="M1.74994 12.25C1.74994 11.7668 2.14169 11.375 2.62494 11.375H5.24994C5.94613 11.375 6.61381 11.6516 7.10609 12.1439C7.59838 12.6361 7.87494 13.3038 7.87494 14V16.625C7.87494 17.3212 7.59838 17.9889 7.10609 18.4812C6.61381 18.9734 5.94613 19.25 5.24994 19.25H4.37494C3.67875 19.25 3.01107 18.9734 2.51878 18.4812C2.0265 17.9889 1.74994 17.3212 1.74994 16.625V12.25ZM3.49994 13.125V16.625C3.49994 16.8571 3.59213 17.0796 3.75622 17.2437C3.92031 17.4078 4.14287 17.5 4.37494 17.5H5.24994C5.482 17.5 5.70456 17.4078 5.86866 17.2437C6.03275 17.0796 6.12494 16.8571 6.12494 16.625V14C6.12494 13.7679 6.03275 13.5454 5.86866 13.3813C5.70456 13.2172 5.482 13.125 5.24994 13.125H3.49994ZM15.7499 13.125C15.5179 13.125 15.2953 13.2172 15.1312 13.3813C14.9671 13.5454 14.8749 13.7679 14.8749 14V16.625C14.8749 16.8571 14.9671 17.0796 15.1312 17.2437C15.2953 17.4078 15.5179 17.5 15.7499 17.5H16.6249C16.857 17.5 17.0796 17.4078 17.2437 17.2437C17.4078 17.0796 17.4999 16.8571 17.4999 16.625V13.125H15.7499ZM13.8938 12.1439C14.3861 11.6516 15.0537 11.375 15.7499 11.375H18.3749C18.8582 11.375 19.2499 11.7668 19.2499 12.25V16.625C19.2499 17.3212 18.9734 17.9889 18.4811 18.4812C17.9888 18.9734 17.3211 19.25 16.6249 19.25H15.7499C15.0537 19.25 14.3861 18.9734 13.8938 18.4812C13.4015 17.9889 13.1249 17.3212 13.1249 16.625V14C13.1249 13.3038 13.4015 12.6361 13.8938 12.1439Z" fill="#8C8E99"/>
</svg>
