<svg width="18" height="18" viewBox="0 0 18 18" fill="none" xmlns="http://www.w3.org/2000/svg">
<path d="M7.56993 2.77969V0.689688C6.76993 0.899688 6.01993 1.22969 5.33993 1.64969L6.79993 3.10969C7.04993 2.98969 7.29993 2.86969 7.56993 2.77969ZM0.429932 1.83969L2.78993 4.19969C2.01993 5.41969 1.56993 6.86969 1.56993 8.42969C1.56993 10.6397 2.47993 12.6297 3.92993 14.0697L1.56993 16.4297H7.56993V10.4297L5.32993 12.6697C4.24993 11.5797 3.56993 10.0897 3.56993 8.42969C3.56993 7.42969 3.81993 6.48969 4.24993 5.65969L12.3299 13.7397C12.0799 13.8697 11.8299 13.9897 11.5599 14.0797V16.1697C12.3599 15.9597 13.1099 15.6297 13.7899 15.2097L16.1499 17.5697L17.4199 16.2997L1.70993 0.569687L0.429932 1.83969ZM17.5699 0.429688H11.5699V6.42969L13.8099 4.18969C14.8899 5.27969 15.5699 6.76969 15.5699 8.42969C15.5699 9.42969 15.3199 10.3697 14.8899 11.1997L16.3499 12.6597C17.1199 11.4397 17.5699 9.98969 17.5699 8.42969C17.5699 6.21969 16.6599 4.22969 15.2099 2.78969L17.5699 0.429688Z" fill="#832AD0"/>
</svg>
