<svg width="60" height="32" viewBox="0 0 60 32" fill="none" xmlns="http://www.w3.org/2000/svg">
<path d="M50.0126 17.0336C49.9977 18.5355 49.4099 19.9502 48.3464 21.0137C46.1172 23.2379 42.4933 23.2379 40.2642 21.0137L19.2505 0L12.6652 6.5853L33.6813 27.599C36.5182 30.4359 40.2916 32 44.3065 32C48.3214 32 52.0948 30.4359 54.9317 27.599C55.9055 26.6252 56.6676 25.5143 57.3302 24.3487L50.0126 17.0336Z" fill="url(#paint0_linear_432_4750)"/>
<path d="M15.0262 31.9923C11.1781 31.9923 7.33001 30.5253 4.401 27.5963C1.56164 24.7594 0 20.9861 0 16.9736H9.31258C9.31258 18.4979 9.90785 19.935 10.9863 21.0135C13.2154 23.2376 16.8394 23.2376 19.0685 21.0135L33.6812 6.40325C39.5367 0.547706 49.071 0.540234 54.9315 6.40325C57.7559 9.22766 59.32 12.9811 59.3325 16.9736C59.3325 16.991 59.3325 17.011 59.3325 17.0284H50.0199C50.0199 15.5041 49.4247 14.067 48.3462 12.9886C46.1868 10.8292 42.4234 10.8292 40.264 12.9886L25.6513 27.5988C22.7223 30.5253 18.8742 31.9923 15.0262 31.9923Z" fill="#005EFE"/>
<path d="M36.2516 17.001L29.6663 23.5838L33.3525 27.27L39.9353 20.6847L36.2516 17.001Z" fill="url(#paint1_linear_432_4750)"/>
<path d="M23.0813 17.0014L29.6666 10.4186L25.9804 6.73242L19.3951 13.3152L23.0813 17.0014Z" fill="url(#paint2_linear_432_4750)"/>
<defs>
<linearGradient id="paint0_linear_432_4750" x1="12.6652" y1="15.9999" x2="57.328" y2="15.9999" gradientUnits="userSpaceOnUse">
<stop stop-color="#FF00FE"/>
<stop offset="1" stop-color="#27FFE1"/>
</linearGradient>
<linearGradient id="paint1_linear_432_4750" x1="33.1873" y1="20.6618" x2="37.3514" y2="24.4624" gradientUnits="userSpaceOnUse">
<stop stop-color="#231F20" stop-opacity="0.2"/>
<stop offset="1" stop-color="#C95FF4" stop-opacity="0"/>
</linearGradient>
<linearGradient id="paint2_linear_432_4750" x1="26.1447" y1="13.3393" x2="21.9805" y2="9.53867" gradientUnits="userSpaceOnUse">
<stop stop-color="#231F20" stop-opacity="0.2"/>
<stop offset="1" stop-color="#D720F5" stop-opacity="0"/>
</linearGradient>
</defs>
</svg>
