<svg width="24" height="24" viewBox="0 0 24 24" fill="none" xmlns="http://www.w3.org/2000/svg">
<path fill-rule="evenodd" clip-rule="evenodd" d="M2.90918 4.00003C2.90918 3.39754 3.3976 2.90912 4.00009 2.90912H20.0001C20.6026 2.90912 21.091 3.39754 21.091 4.00003V7.00003C21.091 7.60252 20.6026 8.09094 20.0001 8.09094C19.3976 8.09094 18.9092 7.60252 18.9092 7.00003V5.09094H5.091V7.00003C5.091 7.60252 4.60258 8.09094 4.00009 8.09094C3.3976 8.09094 2.90918 7.60252 2.90918 7.00003V4.00003Z" fill="#8C8E99"/>
<path fill-rule="evenodd" clip-rule="evenodd" d="M7.90918 20C7.90918 19.3975 8.3976 18.9091 9.00009 18.9091H15.0001C15.6026 18.9091 16.091 19.3975 16.091 20C16.091 20.6025 15.6026 21.0909 15.0001 21.0909H9.00009C8.3976 21.0909 7.90918 20.6025 7.90918 20Z" fill="#8C8E99"/>
<path fill-rule="evenodd" clip-rule="evenodd" d="M12.0001 2.90912C12.6026 2.90912 13.091 3.39754 13.091 4.00003V20C13.091 20.6025 12.6026 21.0909 12.0001 21.0909C11.3976 21.0909 10.9092 20.6025 10.9092 20V4.00003C10.9092 3.39754 11.3976 2.90912 12.0001 2.90912Z" fill="#8C8E99"/>
</svg>
